<?xml version="1.0" standalone="no"?>
<!DOCTYPE svg PUBLIC "-//W3C//DTD SVG 20010904//EN"
 "http://www.w3.org/TR/2001/REC-SVG-20010904/DTD/svg10.dtd">
<svg version="1.0" xmlns="http://www.w3.org/2000/svg"
 width="1424.000000pt" height="1424.000000pt" viewBox="0 0 1424.000000 1424.000000"
 preserveAspectRatio="xMidYMid meet">
<metadata>
Created by potrace 1.11, written by Peter Selinger 2001-2013
</metadata>
<g transform="translate(0.000000,1424.000000) scale(0.100000,-0.100000)"
fill="#000000" stroke="none">
<path d="M1932 8280 c-8 -6 -10 -2329 -2 -2331 3 -1 244 -2 537 -3 526 -1 532
-1 532 19 1 130 -1 179 -4 186 -3 4 1 10 7 12 10 4 10 6 0 6 -7 1 -10 6 -6 13
11 17 6 79 -8 95 -7 9 -23 13 -40 11 -15 -3 -28 -2 -28 2 0 3 -14 5 -30 4 -17
-1 -33 2 -36 7 -3 5 -9 7 -14 4 -12 -7 -136 33 -204 66 -133 66 -243 163 -328
291 -48 72 -102 195 -113 258 -3 18 -9 38 -12 43 -8 14 -13 259 -5 272 4 6 7
15 7 20 2 40 22 111 50 177 59 140 152 258 278 353 99 75 308 155 394 151 18
-1 33 1 33 5 0 3 12 6 28 5 25 -1 27 2 30 39 3 55 3 108 0 188 -2 37 0 67 3
67 3 0 4 10 2 23 l-4 22 -531 0 c-291 0 -533 -2 -536 -5z"/>
<path d="M3010 7940 c-13 -8 -16 -91 -5 -110 4 -6 2 -10 -4 -10 -8 0 -6 -47 4
-77 2 -7 0 -15 -5 -18 -5 -3 -5 -18 0 -35 5 -17 5 -30 0 -30 -8 0 -5 -49 5
-77 2 -7 1 -15 -4 -17 -4 -3 -6 -22 -3 -43 2 -21 3 -45 3 -53 -3 -112 -1 -191
4 -200 3 -5 2 -10 -3 -10 -9 0 -7 -46 2 -92 2 -10 1 -18 -2 -18 -9 0 -7 -164
2 -179 4 -6 2 -11 -4 -11 -6 0 -8 -4 -5 -10 9 -14 12 -90 4 -90 -7 0 -3 -51 6
-77 2 -7 0 -15 -5 -18 -5 -3 -5 -18 0 -35 5 -17 5 -30 0 -30 -8 0 -5 -49 5
-77 2 -7 1 -14 -4 -17 -4 -3 -6 -20 -4 -38 4 -40 4 -67 1 -189 l-3 -96 60 4
c33 2 87 11 120 19 33 9 67 17 76 19 8 2 33 11 55 21 21 9 45 18 52 20 6 1 50
27 95 58 85 56 210 177 222 215 3 12 10 21 15 21 5 0 19 21 32 48 13 26 27 50
31 53 5 3 8 8 7 10 -1 2 3 16 9 31 12 33 38 122 47 163 12 56 13 225 3 283 -6
31 -12 62 -13 67 -1 6 -4 15 -7 20 -4 6 -9 24 -13 40 -11 45 -70 163 -108 217
-48 67 -122 143 -184 189 -48 36 -180 108 -208 114 -6 1 -18 4 -26 7 -39 14
-102 29 -146 34 -27 3 -58 7 -70 9 -11 2 -27 0 -34 -5z"/>
<path d="M4434 7731 c-2 -2 -4 -262 -4 -578 0 -502 2 -573 15 -574 8 0 58 0
110 0 52 0 100 0 105 0 7 1 10 201 10 579 l0 578 -116 0 c-64 -1 -118 -3 -120
-5z"/>
<path d="M7764 7711 c-38 -17 -74 -57 -78 -87 -1 -7 -5 -16 -8 -20 -4 -3 -3
-17 2 -30 5 -13 7 -24 4 -24 -2 0 2 -13 11 -29 33 -64 114 -94 180 -67 55 23
94 83 89 138 -10 103 -107 160 -200 119z"/>
<path d="M12063 7713 c-31 -16 -92 -79 -94 -97 -11 -105 1 -150 55 -198 71
-63 193 -50 252 28 32 42 44 126 24 174 -15 35 -83 99 -108 101 -78 6 -105 5
-129 -8z"/>
<path d="M5123 7380 c-82 -23 -134 -52 -191 -108 -140 -136 -166 -370 -60
-525 29 -43 85 -107 94 -107 3 0 19 -9 35 -21 75 -53 214 -77 314 -54 61 15
135 45 135 56 0 4 8 10 18 13 9 3 31 19 47 36 85 83 125 174 130 294 12 273
-259 489 -522 416z m180 -246 c101 -52 135 -176 71 -266 -78 -111 -232 -104
-307 14 -37 59 -21 170 32 219 53 49 143 64 204 33z"/>
<path d="M7118 7395 c-2 -1 -21 -5 -43 -8 -46 -5 -124 -35 -143 -54 -7 -7 -17
-13 -22 -13 -5 0 -27 -18 -49 -39 -170 -167 -175 -436 -12 -600 110 -110 250
-149 404 -112 50 12 122 44 142 65 7 6 27 25 46 43 59 55 89 106 113 190 13
47 15 165 4 203 -3 8 -8 28 -13 44 -30 108 -143 219 -265 260 -41 13 -154 28
-162 21z m103 -259 c71 -30 115 -108 106 -188 -4 -28 -14 -59 -23 -69 -10 -11
-13 -19 -9 -19 4 0 -3 -9 -16 -20 -13 -11 -30 -25 -37 -31 -7 -6 -40 -13 -72
-16 -128 -12 -213 79 -200 212 4 46 46 98 105 132 28 16 107 16 146 -1z"/>
<path d="M8519 7389 c-52 -8 -93 -27 -138 -65 l-31 -26 0 36 0 35 -120 3 -120
3 -1 -35 c0 -19 -1 -270 -2 -558 l-2 -522 123 0 122 0 0 190 c0 120 4 190 10
190 6 0 10 -4 10 -9 0 -6 29 -24 65 -42 180 -88 408 4 500 205 30 63 33 78 33
172 1 142 -29 222 -113 307 -86 85 -222 133 -336 116z m132 -267 c68 -48 97
-151 64 -229 -27 -64 -74 -99 -145 -108 -59 -7 -115 10 -154 49 -106 102 -69
268 69 312 55 18 120 8 166 -24z"/>
<path d="M9378 7395 c-2 -2 -23 -4 -48 -6 -25 -1 -49 -5 -55 -8 -5 -3 -16 -6
-23 -7 -18 -3 -92 -43 -106 -57 -50 -52 -67 -88 -73 -154 -7 -86 6 -130 55
-179 33 -33 120 -81 161 -89 44 -8 127 -36 147 -50 65 -42 -35 -98 -120 -66
-32 13 -66 42 -66 58 0 26 -22 21 -102 -25 -45 -26 -91 -51 -100 -55 -16 -6
-16 -9 4 -44 26 -44 29 -47 84 -91 23 -17 49 -32 57 -32 9 0 18 -4 21 -9 4 -5
25 -13 49 -17 102 -19 228 -4 307 36 36 18 104 82 106 98 0 4 6 20 12 35 28
68 7 186 -44 243 -30 33 -108 72 -187 93 -93 25 -120 35 -136 54 -16 20 1 57
27 58 9 0 27 2 40 3 12 2 27 -3 33 -11 6 -7 17 -13 24 -13 7 0 21 -11 31 -25
l18 -24 32 24 c18 14 39 25 47 25 8 0 26 9 40 20 14 11 29 20 34 20 4 0 16 7
26 15 18 13 18 15 -5 45 -29 40 -128 107 -176 119 -42 11 -110 20 -114 16z"/>
<path d="M11102 7381 c-28 -9 -65 -28 -81 -43 -17 -16 -33 -28 -36 -28 -3 0
-5 14 -5 30 0 28 -3 30 -37 31 -93 2 -196 0 -201 -5 -4 -5 -7 -672 -3 -771 1
-20 20 -22 217 -16 22 1 22 3 22 245 0 264 6 297 56 330 54 35 129 21 162 -30
16 -24 19 -56 20 -283 1 -141 3 -258 3 -261 1 -4 102 -4 217 -1 20 1 20 5 20
249 1 268 5 292 58 328 32 20 100 20 131 0 44 -29 48 -55 49 -325 l1 -254 98
1 c53 0 107 1 120 1 l22 1 -2 278 c-2 281 -3 297 -16 320 -5 6 -5 12 -2 12 12
0 -50 105 -75 128 -105 96 -299 100 -405 9 l-37 -32 -39 36 c-63 58 -167 78
-257 50z"/>
<path d="M6035 7378 c-87 -28 -118 -45 -171 -94 -18 -17 -36 -29 -39 -26 -3 3
-5 -2 -5 -11 0 -9 -4 -17 -10 -17 -5 0 -10 -6 -10 -13 0 -7 -8 -22 -17 -33
-10 -10 -20 -28 -21 -39 -2 -11 -8 -25 -14 -32 -5 -7 -7 -17 -4 -22 4 -5 2
-12 -3 -15 -12 -8 -11 -138 1 -185 5 -20 14 -47 21 -61 18 -39 79 -130 87
-130 3 0 15 -8 26 -18 90 -83 237 -115 357 -77 30 9 69 30 87 47 36 33 41 32
42 -8 2 -89 -37 -161 -101 -185 -41 -16 -135 -13 -172 6 -43 22 -79 55 -79 71
0 17 -22 9 -75 -25 -22 -15 -53 -33 -70 -41 -16 -8 -38 -20 -47 -28 -16 -13
-16 -16 0 -40 37 -57 129 -124 197 -144 58 -16 72 -18 155 -18 196 -1 347 90
400 240 22 63 22 75 24 473 1 285 -2 411 -10 418 -6 5 -13 7 -15 4 -3 -2 -51
-5 -107 -6 -66 -2 -102 -6 -101 -13 1 -6 1 -23 0 -38 l-1 -27 -26 24 c-50 46
-113 69 -194 71 -41 1 -88 -2 -105 -8z m194 -198 c49 -13 107 -70 121 -118 39
-143 -44 -258 -183 -253 -169 5 -251 210 -130 324 56 54 115 68 192 47z"/>
<path d="M7702 6978 c0 -383 1 -398 19 -399 87 -3 211 -1 216 4 8 8 8 775 0
783 -3 4 -58 7 -120 8 l-114 1 -1 -397z"/>
<path d="M9819 7369 c-5 -3 -9 -124 -9 -275 0 -218 3 -279 16 -323 32 -109 90
-169 193 -201 60 -19 154 -20 189 -1 9 5 21 9 26 9 10 -1 43 21 68 45 26 25
34 21 32 -13 -2 -25 2 -30 19 -31 12 0 66 -1 120 -2 l97 -2 1 25 c1 14 2 192
2 397 l2 372 -118 3 c-64 2 -118 1 -118 -2 -1 -3 -2 -113 -3 -245 -2 -203 -5
-245 -19 -275 -41 -85 -164 -101 -232 -30 l-30 31 -3 260 -3 259 -72 1 c-40 0
-89 1 -110 2 -22 1 -43 -1 -48 -4z"/>
</g>
</svg>
